<svg xmlns="http://www.w3.org/2000/svg" width="196" height="16" viewBox="0 0 196 16" fill="none"><g clip-path="url(#clip0_251_2348)"><path fill-rule="evenodd" clip-rule="evenodd" d="M39.4044 5.98754C36.216 3.00486 30.4639 5.08129 30.4639 9.97445C30.4639 14.8676 36.301 16.8241 39.4611 13.8628C39.9994 13.2506 39.1746 12.7442 38.8492 13.0695C36.2668 15.414 31.5123 13.9091 31.5123 9.97445C31.5123 6.03979 35.9969 4.30418 38.8492 6.80424C39.2911 7.18721 39.8641 6.45247 39.4044 5.98754Z" fill="black"></path><path fill-rule="evenodd" clip-rule="evenodd" d="M42.1758 0.661039C42.1758 3.13808 42.1758 12.4734 42.1758 14.6228C42.1758 15.1099 42.3941 15.2725 42.5866 15.2725C43.2386 15.2725 43.8038 15.2725 44.423 15.2725C44.935 15.2725 44.935 14.2222 44.4235 14.2222C44.1091 14.2222 43.7141 14.2222 43.2386 14.2222C43.2791 6.48688 43.2791 1.96649 43.2386 0.661039C43.2386 -0.0334974 42.1758 -0.0334974 42.1758 0.661039Z" fill="black"></path><path fill-rule="evenodd" clip-rule="evenodd" d="M52.3878 5.70804C50.131 5.70804 48.1641 7.68049 48.1641 9.94293C48.1641 12.2054 50.1311 14.1778 52.388 14.1778C54.6448 14.1778 56.6116 12.2054 56.6116 9.94293C56.6115 7.68049 54.6447 5.70804 52.3878 5.70804ZM52.385 4.61328C49.5447 4.61328 47.0693 7.09565 47.0693 9.94298C47.0694 12.7903 49.5449 15.2727 52.3852 15.2727C55.2254 15.2727 57.7007 12.7903 57.7007 9.94298C57.7006 7.09565 55.2253 4.61328 52.385 4.61328Z" fill="black"></path><path fill-rule="evenodd" clip-rule="evenodd" d="M60.2979 4.98842C60.2979 6.18842 60.2979 8.77938 60.2979 10.087C60.2979 12.1609 61.9808 15.303 65.4884 15.303C67.0146 15.303 68.317 14.6475 69.164 13.7202C69.4166 13.7202 69.5801 13.7202 69.6547 13.7202C69.6547 14.1762 69.6547 14.5663 69.6547 14.8904C69.6547 15.3942 70.6789 15.3942 70.6789 14.8904C70.6789 13.3377 70.6789 6.64552 70.6789 4.98818C70.6789 4.4307 69.6547 4.4307 69.6547 4.98818C69.6547 6.19976 69.6547 8.10799 69.6547 10.087C69.6547 11.6853 68.1846 14.2691 65.4981 14.2691C62.8116 14.2691 61.3415 11.6952 61.3415 10.087C61.3415 8.10824 61.3415 6.62949 61.3415 4.98842C61.3415 4.4307 60.2979 4.4307 60.2979 4.98842Z" fill="black"></path><path fill-rule="evenodd" clip-rule="evenodd" d="M78.2365 5.70791C75.9796 5.70791 74.0127 7.68036 74.0127 9.9428C74.0128 12.2052 75.9798 14.1777 78.2366 14.1777C80.4934 14.1777 82.6427 12.2052 82.6427 9.9428C82.6426 7.68036 80.4933 5.70791 78.2365 5.70791ZM78.2336 4.61315C75.3933 4.61315 72.9179 7.09553 72.918 9.94285C72.918 12.7902 75.3935 15.2726 78.2338 15.2726C81.074 15.2726 83.7318 12.7902 83.7318 9.94285C83.7317 9.52674 83.7318 1.26616 83.7318 0.53822C83.7318 -0.00915925 82.6427 -0.00915925 82.6427 0.53822C82.6427 1.69012 82.6418 5.50134 82.6418 6.70885C81.6518 5.44983 79.8826 4.61315 78.2336 4.61315Z" fill="black"></path><path fill-rule="evenodd" clip-rule="evenodd" d="M88.9528 5.81182C87.9086 5.81182 87.0846 5.81182 86.4808 5.81182C85.9335 5.81182 85.9335 4.76894 86.4808 4.76894C87.1862 4.76894 88.0102 4.76894 88.9528 4.76894C88.8577 3.31617 89.0961 2.15086 89.6681 1.27301C90.526 -0.0437631 92.6845 0.140111 93.1102 0.140111C93.5968 0.140111 93.5968 1.09851 93.1102 1.09851C92.6845 1.09851 91.1811 1.03769 90.526 1.94061C90.0892 2.54255 89.9149 3.48533 90.0029 4.76894C91.1818 4.76894 92.0959 4.76894 92.7453 4.76894C93.2927 4.76894 93.2927 5.81182 92.7453 5.81182C92.0509 5.81182 91.1367 5.81182 90.0029 5.81182C90.0029 11.1564 90.0029 14.1628 90.0029 14.8309C90.0029 15.3782 88.9528 15.3782 88.9528 14.8309C88.9528 14.3535 88.9528 11.3471 88.9528 5.81182Z" fill="black"></path><path fill-rule="evenodd" clip-rule="evenodd" d="M100.983 5.70804C98.7257 5.70804 96.7588 7.68049 96.7588 9.94293C96.7589 12.2054 98.7259 14.1778 100.983 14.1778C103.239 14.1778 105.206 12.2054 105.206 9.94293C105.206 7.68049 103.239 5.70804 100.983 5.70804ZM100.98 4.61328C98.1394 4.61328 95.664 7.09565 95.6641 9.94298C95.6641 12.7903 98.1396 15.2727 100.98 15.2727C103.82 15.2727 106.295 12.7903 106.295 9.94298C106.295 7.09565 103.82 4.61328 100.98 4.61328Z" fill="black"></path><path fill-rule="evenodd" clip-rule="evenodd" d="M109.219 14.8306C109.219 13.8485 109.219 5.99794 109.219 4.97778C109.219 4.4304 110.269 4.4304 110.269 4.97778C110.269 5.26905 110.269 5.74991 110.269 6.42035C111.157 5.64347 112.092 5.09198 113.076 4.76586C114.552 4.27669 116.221 4.76586 116.566 4.98087C117.087 5.31384 116.711 6.16555 116.221 5.93712C115.855 5.70204 113.912 5.3092 112.682 5.93712C111.452 6.56504 110.269 8.15681 110.269 9.46658C110.269 12.4117 110.269 13.9196 110.269 14.8306C110.269 15.378 109.219 15.378 109.219 14.8306Z" fill="black"></path><path fill-rule="evenodd" clip-rule="evenodd" d="M126.318 13.6425C123.084 14.8816 120.92 13.9153 119.824 10.7436C123.458 10.7436 126.379 10.7436 128.587 10.7436C129.247 10.7436 129.368 10.622 129.368 10.1304C129.368 6.02437 126.259 4.61328 123.917 4.61328C121.576 4.61328 118.667 6.14922 118.667 10.2521C118.667 14.3549 123.737 16.579 126.761 14.5254C127.26 14.1403 126.831 13.3696 126.318 13.6425ZM119.751 9.66133C119.751 8.65077 120.624 5.66732 123.969 5.66732C127.315 5.66732 128.248 8.54653 128.248 9.66133C126.562 9.66133 121.19 9.66133 119.751 9.66133Z" fill="black"></path><path fill-rule="evenodd" clip-rule="evenodd" d="M140.55 6.08281C141.066 6.57948 140.226 7.23875 139.883 6.84006C137.644 4.41515 132.554 5.74405 132.554 9.94366C132.554 14.1433 137.562 15.3334 139.762 13.1135C140.239 12.6064 140.927 13.4657 140.432 13.8919C137.429 16.7955 131.488 14.9922 131.488 9.94366C131.488 4.89513 137.302 2.89508 140.55 6.08281Z" fill="black"></path><path fill-rule="evenodd" clip-rule="evenodd" d="M148.239 5.70804C145.983 5.70804 144.016 7.68049 144.016 9.94293C144.016 12.2054 145.983 14.1778 148.24 14.1778C150.496 14.1778 152.463 12.2054 152.463 9.94293C152.463 7.68049 150.496 5.70804 148.239 5.70804ZM148.237 4.61328C145.396 4.61328 142.921 7.09565 142.921 9.94298C142.921 12.7903 145.396 15.2727 148.237 15.2727C149.981 15.2727 151.527 14.5186 152.507 13.1362C152.507 13.8854 152.507 14.1778 152.507 14.9259C152.507 15.4392 153.552 15.4392 153.552 14.9259C153.552 13.6831 153.552 10.5584 153.552 9.94298C153.552 7.09565 151.077 4.61328 148.237 4.61328Z" fill="black"></path><path fill-rule="evenodd" clip-rule="evenodd" d="M164.39 6.94103C164.79 7.45741 163.963 8.15137 163.518 7.53355C163.087 6.88021 161.954 5.66144 160.379 5.70777C158.805 5.7541 157.078 6.88199 156.91 7.89728C156.853 8.23919 157.186 8.73466 157.756 8.87456C159.544 9.3136 161.355 9.74628 163.519 10.2507C164.253 10.4474 164.548 11.4077 164.548 12.0181C164.548 12.6284 163.351 15.2565 160.379 15.2565C157.407 15.2565 156.432 13.5254 155.975 12.9034C155.558 12.4134 156.376 11.7512 156.757 12.2005C157.073 12.6127 158.167 14.2226 160.318 14.2226C162.288 14.2226 163.641 12.2005 163.351 11.5954C163.134 11.1417 162.63 11.1582 161.213 10.8277C160.167 10.5836 159.879 10.4881 157.012 9.76132C156.595 9.63755 155.876 9.05643 155.876 7.89728C155.876 6.73814 157.559 4.67383 160.379 4.67383C163.2 4.67383 164.007 6.47479 164.39 6.94103Z" fill="black"></path><path fill-rule="evenodd" clip-rule="evenodd" d="M168.551 5.85388C168.034 5.85388 167.473 5.85388 166.87 5.85388C166.322 5.85388 166.322 4.811 166.87 4.811C167.575 4.811 168.135 4.811 168.551 4.811C168.551 3.12159 168.551 1.87983 168.551 1.08571C168.551 0.35587 169.601 0.35587 169.601 1.08571C169.601 1.84456 169.601 3.08632 169.601 4.811C170.537 4.811 171.329 4.811 171.978 4.811C172.526 4.811 172.526 5.85399 171.978 5.85388C171.284 5.85388 170.491 5.85388 169.601 5.85388C169.601 9.39973 169.601 11.6816 169.601 12.6996C169.546 14.1437 171.195 14.3457 172.222 14.3457C172.769 14.3457 172.769 15.2727 172.222 15.2727C169.888 15.2727 168.551 14.5233 168.551 12.786C168.551 11.777 168.551 9.46634 168.551 5.85388Z" fill="black"></path><path fill-rule="evenodd" clip-rule="evenodd" d="M176.628 12.8877C177.034 12.8565 177.371 13.0607 177.604 13.2909C177.826 13.5102 177.953 13.7474 177.955 14.0488C177.923 14.3363 177.829 14.7014 177.624 14.9347C177.42 15.1677 177.104 15.2691 176.874 15.2728C176.486 15.3075 176.414 15.2728 176.167 15.1511C175.92 15.0295 175.488 14.4523 175.486 14.0802C175.487 13.8479 175.603 13.5549 175.75 13.4185C176.011 13.1766 176.251 12.9236 176.628 12.8877Z" fill="#F89134"></path><path fill-rule="evenodd" clip-rule="evenodd" d="M181.238 14.8881C181.238 13.906 181.238 6.05545 181.238 5.03529C181.238 4.48791 182.289 4.48791 182.289 5.03529C182.289 5.4722 182.289 13.9771 182.289 14.8881C182.289 15.4355 181.238 15.4355 181.238 14.8881Z" fill="black"></path><path fill-rule="evenodd" clip-rule="evenodd" d="M181.241 2.30041C181.226 2.11415 181.32 1.95942 181.426 1.85262C181.526 1.75093 181.635 1.6927 181.773 1.69206C181.905 1.70637 182.072 1.74951 182.179 1.84344C182.286 1.93727 182.333 2.08184 182.334 2.18766C182.35 2.3655 182.334 2.39834 182.278 2.51158C182.223 2.62483 181.958 2.82301 181.787 2.82373C181.681 2.82345 181.547 2.77009 181.484 2.70271C181.373 2.58315 181.257 2.47335 181.241 2.30041Z" fill="black"></path><path fill-rule="evenodd" clip-rule="evenodd" d="M190.57 5.70804C188.314 5.70804 186.347 7.68049 186.347 9.94293C186.347 12.2054 188.314 14.1778 190.571 14.1778C192.827 14.1778 194.794 12.2054 194.794 9.94293C194.794 7.68049 192.827 5.70804 190.57 5.70804ZM190.568 4.61328C187.727 4.61328 185.252 7.09565 185.252 9.94298C185.252 12.7903 187.728 15.2727 190.568 15.2727C193.408 15.2727 195.883 12.7903 195.883 9.94298C195.883 7.09565 193.408 4.61328 190.568 4.61328Z" fill="black"></path><path fill-rule="evenodd" clip-rule="evenodd" d="M18.9879 15.608C21.4507 15.608 23.4445 13.3392 23.41 10.8892C23.3809 8.82764 22.1379 7.08442 20.2273 6.52297C20.1767 4.68572 18.58 3.27803 16.6997 3.27803C16.1532 3.27803 15.7939 3.33283 15.3342 3.55467C14.5211 1.65693 12.6255 0.53833 10.4003 0.53833C7.97392 0.53833 5.9467 2.02461 5.28325 4.19874C2.41525 4.53949 0.298828 7.00638 0.298828 9.91906C0.298828 12.9707 2.6809 15.608 5.82459 15.608H18.9879ZM18.6711 14.976C20.9397 14.976 22.7532 13.1461 22.7532 10.8892C22.7532 8.99008 21.3907 7.56242 19.6308 7.04523C19.5842 5.35281 18.4049 3.97761 16.6728 3.97761C16.1693 3.97761 15.4487 4.19693 15.0253 4.40128C14.2762 2.65315 12.4678 1.21861 10.418 1.21861C8.1829 1.21861 6.33156 2.95171 5.78956 4.78157C3.28595 5.09545 1.03293 7.05931 1.03293 9.91906C1.03293 12.7788 3.32293 14.976 6.2188 14.976H18.6711Z" fill="url(#paint0_linear_251_2348)"></path></g><defs><linearGradient id="paint0_linear_251_2348" x1="13.5813" y1="0.532219" x2="13.5813" y2="17.0431" gradientUnits="userSpaceOnUse"><stop stop-color="#FAD961"></stop><stop offset="1" stop-color="#F76B1C"></stop></linearGradient><clipPath id="clip0_251_2348"><rect width="196" height="15.9783" fill="white"></rect></clipPath></defs></svg>